PathFileType	4	(X/Y/Z)	s11c0401.trc
DataRate	CameraRate	NumFrames	NumMarkers	Units	OrigDataRate	OrigDataStartFrame	OrigNumFrames
200	200	4	48	mm	200	0	2000
Frame#	Time	racr			lacr			c7			jug			rlel			rdr			llel			ldr			s2			lic			ric			lasi			rasi			rpsi			lpsi			rgt			lgt			rth1			rth2			rth3			rth4			rlfc			rmfc			rsh1			rsh2			rsh3			rsh4			rlmal			rcal			rtoe			rmt5			lth1			lth2			lth4			lth3			llfc			lmfc			llmal			lcal			lmt5			lsh1			lsh2			lsh3			lsh4			ltoe			SBIKE			LBIKE			RBIKE			
		X1	Y1	Z1	X2	Y2	Z2	X3	Y3	Z3	X4	Y4	Z4	X5	Y5	Z5	X6	Y6	Z6	X7	Y7	Z7	X8	Y8	Z8	X9	Y9	Z9	X10	Y10	Z10	X11	Y11	Z11	X12	Y12	Z12	X13	Y13	Z13	X14	Y14	Z14	X15	Y15	Z15	X16	Y16	Z16	X17	Y17	Z17	X18	Y18	Z18	X19	Y19	Z19	X20	Y20	Z20	X21	Y21	Z21	X22	Y22	Z22	X23	Y23	Z23	X24	Y24	Z24	X25	Y25	Z25	X26	Y26	Z26	X27	Y27	Z27	X28	Y28	Z28	X29	Y29	Z29	X30	Y30	Z30	X31	Y31	Z31	X32	Y32	Z32	X33	Y33	Z33	X34	Y34	Z34	X35	Y35	Z35	X36	Y36	Z36	X37	Y37	Z37	X38	Y38	Z38	X39	Y39	Z39	X40	Y40	Z40	X41	Y41	Z41	X42	Y42	Z42	X43	Y43	Z43	X44	Y44	Z44	X45	Y45	Z45	X46	Y46	Z46	X47	Y47	Z47	X48	Y48	Z48	
0	0.0000	458.719093	1440.529099	-110.383567	457.146166	1477.046657	-443.713666	369.045230	1546.811543	-278.510647	428.113557	1379.328792	-283.516957	568.331245	1190.569470	-42.806082	759.187356	958.404585	-75.895805	0.000000	0.000000	-0.000000	747.470604	946.870554	-488.629425	-121.952918	1202.282338	-245.776390	86.218442	1216.172858	-462.124261	107.637250	1227.711249	-65.636066	124.821062	1142.078799	-436.076945	128.892982	1163.270839	-104.203247	-79.084286	1278.595488	-199.837542	-87.444256	1268.987903	-295.568704	70.956630	1090.257497	-36.999402	-8.524880	1077.024451	-458.895766	201.348443	1027.989784	-40.731499	288.855025	1020.826188	-55.803700	358.223600	969.687899	-70.899371	299.803479	1053.714974	-69.245577	455.497326	915.653246	-93.418731	448.409403	899.269466	-226.810442	353.070977	796.909356	-81.960326	305.284916	724.698596	-100.366960	229.069252	682.699791	-98.747105	320.151490	710.546068	-134.296321	120.009043	605.896209	-107.829106	51.747624	617.873579	-153.803776	287.895911	455.674465	-150.054894	215.280764	466.106100	-79.367954	67.842027	946.655910	-478.185022	121.308637	880.613960	-471.394295	155.690837	894.549429	-467.840019	134.709032	792.444135	-458.707587	191.681988	665.385908	-431.303303	209.102535	659.157272	-304.382584	153.347494	230.102915	-411.869558	111.281918	172.831626	-378.415830	315.987922	172.016525	-456.363969	169.886362	538.327851	-451.677709	190.911717	455.124338	-440.244178	167.902421	369.937065	-436.257619	222.645787	456.972248	-418.455278	405.173029	219.943396	-391.109813	-215.718305	958.177962	-256.302460	-18.130628	80.944614	-460.720421	-17.915919	80.812915	-62.101426	
1	0.0050	458.638363	1440.619577	-110.444577	457.117013	1477.051562	-443.605895	368.953537	1546.943478	-278.483342	428.054675	1379.425308	-283.494500	568.386779	1190.743368	-43.227434	759.345440	958.497467	-75.950501	0.000000	0.000000	-0.000000	747.574474	946.921229	-488.591127	-122.014476	1202.337271	-245.776138	86.261030	1216.230051	-462.174110	107.667084	1227.767154	-65.670969	124.799066	1142.114393	-436.057094	128.895281	1163.327192	-104.249271	-79.097501	1278.634263	-199.849484	-87.446325	1269.017408	-295.578834	70.951945	1090.336070	-37.044514	-8.582051	1077.074253	-458.930239	201.364775	1028.010278	-40.769050	288.849220	1020.832485	-55.885606	358.223871	969.688381	-70.968888	299.812883	1053.710455	-69.347919	455.497466	915.609730	-93.502890	448.362825	899.178736	-226.853191	353.032147	796.855173	-81.989579	305.308765	724.654365	-100.395433	229.099200	682.610345	-98.789171	320.122694	710.495808	-134.320823	119.977049	605.869695	-107.835935	51.668735	617.877629	-153.780990	287.851485	455.640503	-150.053662	215.217250	466.078703	-79.365971	67.773501	946.728368	-478.182357	121.220527	880.673328	-471.433374	155.602801	894.595045	-467.901379	134.596559	792.493930	-458.778142	191.557185	665.389715	-431.330721	209.010777	659.187389	-304.409096	153.362104	230.123532	-411.856223	111.312157	172.861981	-378.406054	316.025039	172.050806	-456.365400	169.809775	538.328763	-451.678756	190.877569	455.116167	-440.241958	167.877014	369.963793	-436.250636	222.612223	456.993723	-418.483397	405.194761	219.979516	-391.134432	-215.713808	958.172454	-256.306660	-18.155180	81.011707	-460.680173	-17.859782	80.885795	-62.186979	
2	0.0100	458.557206	1440.708461	-110.507770	457.138353	1477.059281	-443.530179	368.902319	1547.075742	-278.466191	427.996232	1379.528979	-283.451317	568.421038	1190.928422	-43.533760	759.477869	958.585221	-76.056272	0.000000	0.000000	-0.000000	747.635973	946.976099	-488.489434	-121.991590	1202.344079	-245.817606	86.220091	1216.257017	-462.041827	107.636183	1227.856557	-65.691712	124.804562	1142.200286	-436.035519	128.912748	1163.358030	-104.295891	-79.094916	1278.656320	-199.893854	-87.470793	1269.026595	-295.603777	70.952448	1090.401330	-37.057580	-8.602973	1077.130595	-458.945390	201.367491	1028.024955	-40.829059	288.863022	1020.833113	-55.948530	358.228367	969.681771	-71.024959	299.813385	1053.711220	-69.440397	455.493755	915.594524	-93.555805	448.355175	899.099042	-226.932885	353.042653	796.817142	-82.042074	305.303955	724.596276	-100.424796	229.086011	682.587121	-98.814514	320.084712	710.459915	-134.372932	119.925679	605.844274	-107.827312	51.656310	617.857718	-153.784705	287.817791	455.607174	-150.046345	215.183298	466.062853	-79.377652	67.725433	946.798829	-478.175104	121.140969	880.711968	-471.466168	155.551447	894.616030	-467.955387	134.502989	792.523044	-458.777848	191.437089	665.378309	-431.328774	208.920780	659.231006	-304.415417	153.379039	230.145363	-411.844670	111.356512	172.882831	-378.382998	316.055755	172.082190	-456.345324	169.738148	538.317964	-451.626515	190.832044	455.136913	-440.235059	167.862801	370.000265	-436.207533	222.587313	456.994607	-418.449829	405.237659	220.016250	-391.137152	-215.718833	958.174902	-256.304840	-18.140023	80.995371	-460.670210	-17.933047	80.802467	-62.106621	
3	0.0150	458.483227	1440.815587	-110.590022	457.151097	1477.059646	-443.462813	368.819044	1547.187357	-278.386506	427.917677	1379.637301	-283.404837	568.471934	1191.067917	-43.745921	759.602202	958.671158	-76.192021	0.000000	0.000000	-0.000000	747.745449	947.048042	-488.257214	-122.020805	1202.353254	-245.846137	86.288718	1216.327234	-462.102128	106.858699	1227.994389	-65.687473	124.800100	1142.297361	-435.993561	128.913980	1163.407820	-104.333814	-78.446768	1278.268395	-200.500051	-87.862216	1269.419776	-293.775558	70.738599	1090.496720	-37.076971	-8.624735	1077.171185	-458.962006	201.408882	1028.142878	-40.895892	288.898730	1020.836050	-56.014257	358.437453	970.154350	-70.842992	299.821172	1053.726051	-69.525235	455.522054	915.575368	-93.604331	448.381832	899.025502	-226.981751	353.065495	796.797585	-82.066211	305.750045	724.614556	-100.246714	229.085790	682.335203	-98.686288	322.913392	710.994487	-133.738562	119.922174	605.836548	-107.820357	51.643096	617.855117	-153.778020	287.786163	455.583690	-150.042220	215.145448	466.035265	-79.377688	67.694402	946.850691	-478.163211	121.093445	880.747907	-471.485967	155.428917	894.777322	-467.995837	134.322951	792.556744	-458.911222	191.324978	665.378051	-431.315595	208.792411	659.250223	-304.401079	153.415069	230.103723	-411.895203	111.393284	172.900143	-378.346784	316.072898	172.117457	-456.369382	169.685270	538.352323	-451.576749	190.783473	455.147324	-440.183003	167.836131	370.016649	-436.166067	222.565010	457.106486	-418.559596	405.270288	220.038233	-391.138503	-215.973651	958.352357	-257.111095	-18.146648	80.998599	-460.667837	-17.933050	80.815526	-62.105236	
